<mxfile host="app.diagrams.net" agent="Mozilla/5.0 (Windows NT 10.0; Win64; x64) AppleWebKit/537.36 (KHTML, like Gecko) Chrome/127.0.0.0 Safari/537.36" version="24.7.6">
  <diagram name="PÃ¡gina-1" id="Pslbs8b2Zk2CQZoFzO7x">
    <mxGraphModel dx="988" dy="526" grid="1" gridSize="10" guides="1" tooltips="1" connect="1" arrows="1" fold="1" page="1" pageScale="1" pageWidth="827" pageHeight="1169" math="0" shadow="0">
      <root>
        <mxCell id="0" />
        <mxCell id="1" parent="0" />
        <mxCell id="-ITScHqpIJH2nwvbKS2t-1" value="" style="endArrow=none;html=1;rounded=0;" edge="1" parent="1">
          <mxGeometry width="50" height="50" relative="1" as="geometry">
            <mxPoint x="160" y="200" as="sourcePoint" />
            <mxPoint x="700" y="200" as="targetPoint" />
          </mxGeometry>
        </mxCell>
        <mxCell id="-ITScHqpIJH2nwvbKS2t-2" value="" style="endArrow=classic;html=1;rounded=0;fillColor=#dae8fc;strokeColor=#6c8ebf;" edge="1" parent="1">
          <mxGeometry width="50" height="50" relative="1" as="geometry">
            <mxPoint x="160" y="200" as="sourcePoint" />
            <mxPoint x="160" y="280" as="targetPoint" />
          </mxGeometry>
        </mxCell>
        <mxCell id="-ITScHqpIJH2nwvbKS2t-3" value="" style="endArrow=classic;html=1;rounded=0;fillColor=#dae8fc;strokeColor=#6c8ebf;" edge="1" parent="1">
          <mxGeometry width="50" height="50" relative="1" as="geometry">
            <mxPoint x="700" y="200" as="sourcePoint" />
            <mxPoint x="700" y="280" as="targetPoint" />
          </mxGeometry>
        </mxCell>
        <mxCell id="-ITScHqpIJH2nwvbKS2t-7" value="0" style="text;html=1;align=center;verticalAlign=middle;resizable=0;points=[];autosize=1;strokeColor=none;fillColor=none;" vertex="1" parent="1">
          <mxGeometry x="140" y="280" width="30" height="30" as="geometry" />
        </mxCell>
        <mxCell id="-ITScHqpIJH2nwvbKS2t-8" value="1200 Kpa" style="text;html=1;align=center;verticalAlign=middle;resizable=0;points=[];autosize=1;strokeColor=none;fillColor=none;" vertex="1" parent="1">
          <mxGeometry x="660" y="280" width="70" height="30" as="geometry" />
        </mxCell>
        <mxCell id="-ITScHqpIJH2nwvbKS2t-9" value="" style="endArrow=classic;html=1;rounded=0;fillColor=#f8cecc;strokeColor=#b85450;" edge="1" parent="1">
          <mxGeometry width="50" height="50" relative="1" as="geometry">
            <mxPoint x="160" y="200" as="sourcePoint" />
            <mxPoint x="160" y="160" as="targetPoint" />
          </mxGeometry>
        </mxCell>
        <mxCell id="-ITScHqpIJH2nwvbKS2t-10" value="" style="endArrow=classic;html=1;rounded=0;fillColor=#f8cecc;strokeColor=#b85450;" edge="1" parent="1">
          <mxGeometry width="50" height="50" relative="1" as="geometry">
            <mxPoint x="700" y="200" as="sourcePoint" />
            <mxPoint x="700" y="160" as="targetPoint" />
          </mxGeometry>
        </mxCell>
        <mxCell id="-ITScHqpIJH2nwvbKS2t-11" value="0.5V" style="text;html=1;align=center;verticalAlign=middle;resizable=0;points=[];autosize=1;strokeColor=none;fillColor=none;" vertex="1" parent="1">
          <mxGeometry x="130" y="120" width="50" height="30" as="geometry" />
        </mxCell>
        <mxCell id="-ITScHqpIJH2nwvbKS2t-12" value="4.5V" style="text;html=1;align=center;verticalAlign=middle;resizable=0;points=[];autosize=1;strokeColor=none;fillColor=none;" vertex="1" parent="1">
          <mxGeometry x="670" y="120" width="50" height="30" as="geometry" />
        </mxCell>
        <mxCell id="-ITScHqpIJH2nwvbKS2t-13" value="" style="endArrow=none;dashed=1;html=1;dashPattern=1 3;strokeWidth=2;rounded=0;flowAnimation=1;fillColor=#647687;strokeColor=#314354;" edge="1" parent="1">
          <mxGeometry width="50" height="50" relative="1" as="geometry">
            <mxPoint x="430" y="230" as="sourcePoint" />
            <mxPoint x="430" y="170" as="targetPoint" />
          </mxGeometry>
        </mxCell>
        <mxCell id="-ITScHqpIJH2nwvbKS2t-15" value="600 Kpa" style="text;html=1;align=center;verticalAlign=middle;resizable=0;points=[];autosize=1;strokeColor=none;fillColor=none;" vertex="1" parent="1">
          <mxGeometry x="395" y="230" width="70" height="30" as="geometry" />
        </mxCell>
        <mxCell id="-ITScHqpIJH2nwvbKS2t-16" value="2.5V" style="text;html=1;align=center;verticalAlign=middle;resizable=0;points=[];autosize=1;strokeColor=none;fillColor=none;" vertex="1" parent="1">
          <mxGeometry x="405" y="140" width="50" height="30" as="geometry" />
        </mxCell>
        <mxCell id="-ITScHqpIJH2nwvbKS2t-18" value="" style="endArrow=none;dashed=1;html=1;dashPattern=1 3;strokeWidth=2;rounded=0;flowAnimation=1;shadow=0;fillColor=#f5f5f5;strokeColor=#666666;" edge="1" parent="1">
          <mxGeometry width="50" height="50" relative="1" as="geometry">
            <mxPoint x="290" y="220" as="sourcePoint" />
            <mxPoint x="290" y="180" as="targetPoint" />
          </mxGeometry>
        </mxCell>
        <mxCell id="-ITScHqpIJH2nwvbKS2t-19" value="&lt;font style=&quot;font-size: 11px;&quot;&gt;1.5V&lt;/font&gt;" style="text;html=1;align=center;verticalAlign=middle;resizable=0;points=[];autosize=1;strokeColor=none;fillColor=none;" vertex="1" parent="1">
          <mxGeometry x="265" y="150" width="50" height="30" as="geometry" />
        </mxCell>
        <mxCell id="-ITScHqpIJH2nwvbKS2t-20" value="&lt;font style=&quot;font-size: 11px;&quot;&gt;300Kpa&lt;/font&gt;" style="text;html=1;align=center;verticalAlign=middle;resizable=0;points=[];autosize=1;strokeColor=none;fillColor=none;" vertex="1" parent="1">
          <mxGeometry x="255" y="220" width="60" height="30" as="geometry" />
        </mxCell>
        <mxCell id="-ITScHqpIJH2nwvbKS2t-22" value="" style="endArrow=none;dashed=1;html=1;dashPattern=1 3;strokeWidth=2;rounded=0;flowAnimation=1;shadow=0;fillColor=#f5f5f5;strokeColor=#666666;" edge="1" parent="1">
          <mxGeometry width="50" height="50" relative="1" as="geometry">
            <mxPoint x="575" y="220" as="sourcePoint" />
            <mxPoint x="575" y="180" as="targetPoint" />
          </mxGeometry>
        </mxCell>
        <mxCell id="-ITScHqpIJH2nwvbKS2t-23" value="&lt;font style=&quot;font-size: 11px;&quot;&gt;3.5V&lt;/font&gt;" style="text;html=1;align=center;verticalAlign=middle;resizable=0;points=[];autosize=1;strokeColor=none;fillColor=none;" vertex="1" parent="1">
          <mxGeometry x="550" y="150" width="50" height="30" as="geometry" />
        </mxCell>
        <mxCell id="-ITScHqpIJH2nwvbKS2t-24" value="&lt;font style=&quot;font-size: 11px;&quot;&gt;900Kpa&lt;/font&gt;" style="text;html=1;align=center;verticalAlign=middle;resizable=0;points=[];autosize=1;strokeColor=none;fillColor=none;" vertex="1" parent="1">
          <mxGeometry x="540" y="220" width="60" height="30" as="geometry" />
        </mxCell>
        <mxCell id="-ITScHqpIJH2nwvbKS2t-25" value="" style="verticalLabelPosition=bottom;verticalAlign=top;html=1;shape=mxgraph.basic.flash" vertex="1" parent="1">
          <mxGeometry x="131" y="127.5" width="9" height="15" as="geometry" />
        </mxCell>
        <mxCell id="-ITScHqpIJH2nwvbKS2t-26" value="" style="verticalLabelPosition=bottom;verticalAlign=top;html=1;shape=mxgraph.basic.flash" vertex="1" parent="1">
          <mxGeometry x="670" y="127.5" width="9" height="15" as="geometry" />
        </mxCell>
        <mxCell id="-ITScHqpIJH2nwvbKS2t-27" value="" style="endArrow=none;dashed=1;html=1;dashPattern=1 3;strokeWidth=2;rounded=0;flowAnimation=1;shadow=0;fillColor=#f5f5f5;strokeColor=#666666;" edge="1" parent="1">
          <mxGeometry width="50" height="50" relative="1" as="geometry">
            <mxPoint x="230" y="220" as="sourcePoint" />
            <mxPoint x="230" y="180" as="targetPoint" />
          </mxGeometry>
        </mxCell>
        <mxCell id="-ITScHqpIJH2nwvbKS2t-28" value="&lt;font style=&quot;font-size: 10px;&quot;&gt;1V&lt;/font&gt;" style="text;html=1;align=center;verticalAlign=middle;resizable=0;points=[];autosize=1;strokeColor=none;fillColor=none;" vertex="1" parent="1">
          <mxGeometry x="210" y="150" width="40" height="30" as="geometry" />
        </mxCell>
        <mxCell id="-ITScHqpIJH2nwvbKS2t-29" value="" style="endArrow=none;dashed=1;html=1;dashPattern=1 3;strokeWidth=2;rounded=0;flowAnimation=1;shadow=0;fillColor=#f5f5f5;strokeColor=#666666;" edge="1" parent="1">
          <mxGeometry width="50" height="50" relative="1" as="geometry">
            <mxPoint x="190" y="220" as="sourcePoint" />
            <mxPoint x="190" y="180" as="targetPoint" />
          </mxGeometry>
        </mxCell>
        <mxCell id="-ITScHqpIJH2nwvbKS2t-30" value="&lt;font style=&quot;font-size: 7px;&quot;&gt;0.75V&lt;/font&gt;" style="text;html=1;align=center;verticalAlign=middle;resizable=0;points=[];autosize=1;strokeColor=none;fillColor=none;" vertex="1" parent="1">
          <mxGeometry x="170" y="150" width="40" height="30" as="geometry" />
        </mxCell>
        <mxCell id="-ITScHqpIJH2nwvbKS2t-31" value="" style="endArrow=none;dashed=1;html=1;dashPattern=1 3;strokeWidth=2;rounded=0;flowAnimation=1;shadow=0;fillColor=#f5f5f5;strokeColor=#666666;" edge="1" parent="1">
          <mxGeometry width="50" height="50" relative="1" as="geometry">
            <mxPoint x="170" y="220" as="sourcePoint" />
            <mxPoint x="170" y="180" as="targetPoint" />
          </mxGeometry>
        </mxCell>
        <mxCell id="-ITScHqpIJH2nwvbKS2t-32" value="&lt;font style=&quot;font-size: 10px;&quot;&gt;150Kpa&lt;/font&gt;" style="text;html=1;align=center;verticalAlign=middle;resizable=0;points=[];autosize=1;strokeColor=none;fillColor=none;" vertex="1" parent="1">
          <mxGeometry x="200" y="220" width="60" height="30" as="geometry" />
        </mxCell>
        <mxCell id="-ITScHqpIJH2nwvbKS2t-33" value="&lt;font style=&quot;font-size: 7px;&quot;&gt;75Kpa&lt;/font&gt;" style="text;html=1;align=center;verticalAlign=middle;resizable=0;points=[];autosize=1;strokeColor=none;fillColor=none;" vertex="1" parent="1">
          <mxGeometry x="170" y="220" width="40" height="30" as="geometry" />
        </mxCell>
      </root>
    </mxGraphModel>
  </diagram>
</mxfile>
